<?xml version="1.0"?>
<svg xmlns="http://www.w3.org/2000/svg" version="1" width="24" height="24" viewBox="0 0 24 24">
    <path style="text-indent:0;text-align:start;line-height:normal;text-transform:none;block-progression:tb;-inkscape-font-specification:Bitstream Vera Sans" d="M 9 0 C 7.8954305 0 7 0.8954305 7 2 C 7 2.4142136 7.1281013 2.8057979 7.34375 3.125 L 3.40625 9.03125 C 3.2760548 9.0046082 3.1380712 9 3 9 C 1.8954305 9 1 9.8954305 1 11 C 1 11.779178 1.4435038 12.451112 2.09375 12.78125 L 1.40625 20.09375 C 0.59211286 20.346973 0 21.102538 0 22 C 0 23.104569 0.8954305 24 2 24 C 2.8387825 24 3.5466906 23.482178 3.84375 22.75 L 13.15625 22.75 C 13.45331 23.482178 14.161218 24 15 24 C 16.104569 24 17 23.104569 17 22 C 17 21.635035 16.889508 21.294544 16.71875 21 L 21.46875 14.9375 C 21.637102 14.983508 21.817056 15 22 15 C 23.104569 15 24 14.104569 24 13 C 24 11.895431 23.104569 11 22 11 C 21.883046 11 21.7677 11.011987 21.65625 11.03125 L 18.625 6.1875 C 18.864768 5.8576669 19 5.4389712 19 5 C 19 3.8954305 18.104569 3 17 3 C 16.41534 3 15.896947 3.2562802 15.53125 3.65625 L 11 1.96875 C 10.983107 0.87876102 10.094011 0 9 0 z M 10.46875 3.34375 L 15 5.03125 C 15.016893 6.121239 15.905989 7 17 7 C 17.127513 7 17.254117 6.9915604 17.375 6.96875 L 20.40625 11.8125 C 20.158861 12.145356 20 12.553411 20 13 C 20 13.364965 20.110492 13.705456 20.28125 14 L 15.53125 20.0625 C 15.362898 20.016492 15.182944 20 15 20 C 14.161218 20 13.45331 20.517822 13.15625 21.25 L 3.84375 21.25 C 3.6619295 20.801858 3.3346896 20.436274 2.90625 20.21875 L 3.5625 12.90625 C 4.3911873 12.66197 5 11.907818 5 11 C 5 10.585786 4.8718987 10.194202 4.65625 9.875 L 8.59375 3.96875 C 8.7239452 3.9953918 8.8619288 4 9 4 C 9.5846598 4 10.103053 3.7437198 10.46875 3.34375 z" overflow="visible" enable-background="accumulate" font-family="Bitstream Vera Sans"/>
</svg>
