<?xml version="1.0" encoding="iso-8859-1"?>
<!-- Generator: Adobe Illustrator 18.1.1, SVG Export Plug-In . SVG Version: 6.00 Build 0)  -->
<svg version="1.1" id="Capa_1" xmlns="http://www.w3.org/2000/svg" xmlns:xlink="http://www.w3.org/1999/xlink" x="0px" y="0px"
	 viewBox="0 0 16.594 16.594" style="enable-background:new 0 0 16.594 16.594;" xml:space="preserve">
<g>
	<g>
		<path style="fill:#030104;" d="M14.792,1.66c-2.214-2.213-5.814-2.213-8.028,0C4.777,3.645,4.58,6.745,6.157,8.961l-6.015,6.016
			l1.618,1.617l6.073-6.072c2.184,1.324,5.073,1.051,6.958-0.834C17.006,7.474,17.006,3.873,14.792,1.66z M14.011,8.906
			c-1.783,1.783-4.683,1.783-6.466,0c-1.782-1.783-1.782-4.683,0-6.465c1.783-1.783,4.683-1.783,6.466,0
			C15.793,4.223,15.793,7.123,14.011,8.906z"/>
		<path style="fill:#030104;" d="M11.694,3.126l-1.571-0.015l-0.014,1.774H8.313l-0.016,1.57l1.812,0.016v1.811l1.571,0.016
			c0.008,0,0.015-0.007,0.015-0.016V6.471h1.773L13.483,4.9l-1.789-0.015V3.126z"/>
	</g>
</g>
<g>
</g>
<g>
</g>
<g>
</g>
<g>
</g>
<g>
</g>
<g>
</g>
<g>
</g>
<g>
</g>
<g>
</g>
<g>
</g>
<g>
</g>
<g>
</g>
<g>
</g>
<g>
</g>
<g>
</g>
</svg>
