<?xml version="1.0" encoding="utf-8"?>
<!-- Svg Vector Icons : http://www.onlinewebfonts.com/icon -->
<!DOCTYPE svg PUBLIC "-//W3C//DTD SVG 1.1//EN" "http://www.w3.org/Graphics/SVG/1.1/DTD/svg11.dtd">
<svg version="1.1" xmlns="http://www.w3.org/2000/svg" xmlns:xlink="http://www.w3.org/1999/xlink" x="0px" y="0px" viewBox="0 0 1000 1000" enable-background="new 0 0 1000 1000" xml:space="preserve">
<metadata> Svg Vector Icons : http://www.onlinewebfonts.com/icon </metadata>
<g><g transform="translate(0.000000,512.000000) scale(0.100000,-0.100000)"><path d="M3755.8,4999.2c-436.4-45.9-922.6-185.7-1318.8-379c-1150.4-558.9-1946.7-1632.8-2168.7-2921c-45.9-269.9-45.9-959,0-1225c149.3-853.7,516.8-1579.2,1096.8-2161.1c625.9-625.9,1374.3-1003,2256.7-1131.2c246.9-36.4,761.8-42.1,1014.5-9.6c589.5,72.7,1202.1,298.6,1701.7,629.7l208.6,139.7l256.5-256.5l254.6-254.6l-224-224L6607.9-3019l880.5-880.5l880.5-880.5l698.7,698.7l698.7,698.7l-880.5,880.5l-880.5,880.5l-252.7-252.7l-254.6-254.6l-243.1,243.1l-241.2,241.2l61.3,74.7c300.5,359.9,451.7,581.9,604.9,886.2c281.4,562.7,411.5,1117.9,411.5,1761c0,491.9-61.3,865.2-222,1320.7C7545.8,3332,6845.2,4130.2,5949.4,4587.7C5275.6,4932.2,4500.4,5077.7,3755.8,4999.2z M4722.4,4359.9c1360.9-241.2,2406-1259.5,2700.8-2631.9c38.3-174.2,44-258.4,45.9-631.7c0-451.7-9.6-543.6-99.5-880.5c-287.1-1093-1182.9-2009.8-2274-2325.7c-407.7-118.7-959-160.8-1370.5-105.3C2626.5-2067.7,1656-1367.1,1171.8-368C551.6,906.9,808.1,2426.7,1813,3431.6c532.1,530.2,1211.6,859.4,1977.3,957.1C3987.4,4413.5,4510,4396.3,4722.4,4359.9z M8445.4-2942.4l440.2-440.3l-264.2-262.2l-262.2-264.1L7915.2-3465l-446,446l258.4,258.4c141.6,141.7,262.2,258.4,268,258.4C8001.3-2502.2,8204.2-2701.3,8445.4-2942.4z"/><path d="M5432.6,3046.8c-503.4-308.2-761.8-455.6-782.9-447.9c-17.2,5.7-292.9,172.3-612.5,367.5l-578.1,354.1l-765.6-407.7l-765.6-407.7V681v-1826.1l44,23c23,13.4,363.7,210.5,756.1,442.2c633.6,369.4,719.7,413.4,756.1,394.3c23-11.5,298.6-170.4,612.5-354.1c312-183.8,576.2-331.1,585.7-327.3c9.6,3.8,354.1,212.5,765.7,465.1l748.4,459.4v1774.4c0,978.1-1.9,1776.3-5.7,1776.3C6186.8,3508.1,5846,3301.4,5432.6,3046.8z M3133.7,1360.5V263.7L2854.3,101c-155.1-90-289-164.6-296.7-168.4c-9.6-3.8-17.2,490-17.2,1100.6v1106.4l292.9,157c158.9,86.1,292.9,156.9,296.7,156.9C3131.8,2455.4,3133.7,1961.5,3133.7,1360.5z M4060.2,2233.3l298.6-183.8V989.2c0-583.8-5.7-1060.4-13.4-1060.4c-9.6,1.9-143.6,78.5-302.4,170.4l-287.1,170.4l-5.7,1073.8c-1.9,589.6,0,1073.8,3.8,1073.8S3895.5,2334.8,4060.2,2233.3z M5583.8,1356.7V298.2l-262.2-158.9C5176.1,51.2,5038.3-33,5015.3-48.3l-44-26.8V985.3v1062.3l302.4,183.8c164.6,101.5,302.4,185.7,306.3,185.7C5581.9,2417.1,5583.8,1940.5,5583.8,1356.7z"/></g></g>
</svg>